<svg xmlns="http://www.w3.org/2000/svg" viewBox="0 0 1600 900" role="img" aria-label="Community farming and healing illustration">
  <rect width="1600" height="900" fill="#1b5e20"/>
  <rect x="0" y="0" width="1600" height="900" fill="url(#bg)"/>
  <circle cx="1260" cy="220" r="240" fill="#d4af37" opacity="0.16"/>
  <circle cx="330" cy="240" r="180" fill="#ffffff" opacity="0.08"/>
  <rect x="80" y="610" width="620" height="180" rx="24" fill="#ffffff" opacity="0.12"/>
  <rect x="120" y="560" width="260" height="140" rx="24" fill="#2e7d32"/>
  <rect x="420" y="540" width="220" height="180" rx="24" fill="#3b8f3f"/>
  <rect x="680" y="520" width="220" height="210" rx="24" fill="#5aa04d"/>
  <rect x="930" y="560" width="260" height="150" rx="24" fill="#2e7d32"/>
  <path d="M180 560c0-120 90-220 200-220 100 0 180 80 180 200" fill="none" stroke="#d4af37" stroke-width="26" stroke-linecap="round"/>
  <path d="M350 430c30-70 60-120 110-160" stroke="#ffffff" stroke-width="20" stroke-linecap="round"/>
  <path d="M760 470c40-80 120-140 210-140 80 0 146 44 200 110" fill="none" stroke="#ffffff" stroke-width="20" stroke-linecap="round"/>
  <path d="M1250 640c60-60 120-92 190-92 80 0 140 36 190 104" fill="none" stroke="#d4af37" stroke-width="20" stroke-linecap="round"/>
  <path d="M1180 500c24-82 88-136 170-160" stroke="#ffffff" stroke-width="18" stroke-linecap="round"/>
  <text x="120" y="240" fill="#ffffff" font-family="Tahoma, Arial, sans-serif" font-size="72" font-weight="700">TSHEETSANO</text>
  <text x="120" y="320" fill="#d4af37" font-family="Tahoma, Arial, sans-serif" font-size="34" letter-spacing="4">COMMUNITY GARDENS &amp; HEALING</text>
  <defs>
    <linearGradient id="bg" x1="0%" y1="0%" x2="100%" y2="100%">
      <stop offset="0%" stop-color="#2e7d32"/>
      <stop offset="100%" stop-color="#123f1d"/>
    </linearGradient>
  </defs>
</svg>